<?xml version="1.0" standalone="no"?>
<!DOCTYPE svg PUBLIC "-//W3C//DTD SVG 1.1//EN" "http://www.w3.org/Graphics/SVG/1.1/DTD/svg11.dtd" >
<svg xmlns="http://www.w3.org/2000/svg">
<metadata>Generated by IcoMoon</metadata>
<defs>
<font id="setup" horiz-adv-x="512">
<font-face units-per-em="512" ascent="480" descent="-32" />
<missing-glyph horiz-adv-x="512" />
<glyph unicode="&#x20;" d="" horiz-adv-x="256" />
<glyph unicode="&#x71;" d="M480-32h-448q-13 0-22.5 9.5t-9.5 22.5v160q0 13.5 9.5 22.75t22.5 9.25h448q13 0 22.5-9.25t9.5-22.75v-160q0-13-9.5-22.5t-22.5-9.5zM480 144q0 6.5-4.75 11.25t-11.25 4.75h-416q-6.5 0-11.25-4.75t-4.75-11.25v-128q0-6.5 4.75-11.25t11.25-4.75h416q6.5 0 11.25 4.75t4.75 11.25v128zM384 32q-13.5 0-22.75 9.5t-9.25 22.75 9.25 22.5 22.75 9.25 22.75-9.25 9.25-22.5-9.25-22.75-22.75-9.5zM288.25 32q-13.25 0-22.75 9.5t-9.5 22.75 9.5 22.5 22.75 9.25 22.5-9.25 9.25-22.5-9.25-22.75-22.5-9.5zM192 32q-13.5 0-22.75 9.5t-9.25 22.75 9.25 22.5 22.75 9.25 22.75-9.25 9.25-22.5-9.25-22.75-22.75-9.5zM96 32q-13.5 0-22.75 9.5t-9.25 22.75 9.25 22.5 22.75 9.25 22.75-9.25 9.25-22.5-9.25-22.75-22.75-9.5zM480 256h-448q-13 0-22.5 9.5t-9.5 22.5v160q0 13.5 9.5 22.75t22.5 9.25h448q13 0 22.5-9.25t9.5-22.75v-160q0-13-9.5-22.5t-22.5-9.5zM480 432q0 6.5-4.75 11.25t-11.25 4.75h-416q-6.5 0-11.25-4.75t-4.75-11.25v-128q0-6.5 4.75-11.25t11.25-4.75h416q6.5 0 11.25 4.75t4.75 11.25v128zM80 320q-6.5 0-11.25 4.75t-4.75 11.25v64q0 6.5 4.75 11.25t11.25 4.75 11.25-4.75 4.75-11.25v-64q0-6.5-4.75-11.25t-11.25-4.75z" />
<glyph unicode="&#x73;" d="M510.5 52l-58-81.5q-2-2.5-4.75-2.5t-4.75 2.5l-58 81.5q-3 5 2 12h29v64q0 13-8.25 26.25t-23.75 25.75-30.25 22.75-35 23.25-30.75 21.5v-183.5h29q5-7 1.5-12l-58-81.5q-1.5-2.5-4.5-2.5t-5 2.5l-57.5 81.5q-3.5 5 1.5 12h29v181q-11-8-30.75-20.75t-34.75-22.75-30.25-22.25-23.75-25.25-8.5-26v0-64h29q5-7 1.5-12l-57.5-81.5q-2-2.5-5-2.5t-4.5 2.5l-58 81.5q-3.5 5 1.5 12h29v96q0 15 14.25 32.25t35.5 32.75 46.25 32.75 46.25 32.25 35.5 31.5 14.25 30.5v96q0 13 9.5 22.5t22.75 9.5 22.5-9.5 9.25-22.5v-96q0-13.5 14.25-29.75t35.5-31.25 46.25-32.5 46.25-33 35.5-33 14.25-32.5v-96h29q5-7 1.5-12z" />
<glyph unicode="&#x76;" d="M480-32h-160q-13.5 0-22.75 9.5t-9.25 22.5v448q0 13 9.25 22.5t22.75 9.5h160q13 0 22.5-9.5t9.5-22.5v-448q0-13.5-9.25-22.75t-22.75-9.25zM320 63.75q0-13.25 9.25-22.5t22.5-9.25 22.75 9.25 9.5 22.5-9.5 22.75-22.5 9.5-22.5-9.5-9.5-22.75zM480 432q0 6.5-4.75 11.25t-11.25 4.75h-128q-6.5 0-11.25-4.75t-4.75-11.25v-32q0-6.5 4.75-11.25t11.25-4.75h128q6.5 0 11.25 4.75t4.75 11.25v32zM480 336q0 6.5-4.75 11.25t-11.25 4.75h-128q-6.5 0-11.25-4.75t-4.75-11.25v-32q0-6.5 4.75-11.25t11.25-4.75h128q6.5 0 11.25 4.75t4.75 11.25v32zM480 240q0 6.5-4.75 11.25t-11.25 4.75h-128q-6.5 0-11.25-4.75t-4.75-11.25v-32q0-6.5 4.75-11.25t11.25-4.75h128q6.5 0 11.25 4.75t4.75 11.25v32zM192-32h-160q-13.5 0-22.75 9.5t-9.25 22.5v448q0 13 9.25 22.5t22.75 9.5h160q13.5 0 22.75-9.5t9.25-22.5v-448q0-13.5-9.25-22.75t-22.75-9.25zM32 63.75q0-13.25 9.25-22.5t22.75-9.25 22.75 9.25 9.25 22.5-9.25 22.75-22.5 9.5-22.75-9.5-9.5-22.75zM192 432q0 6.5-4.75 11.25t-11.25 4.75h-128q-6.5 0-11.25-4.75t-4.75-11.25v-32q0-6.5 4.75-11.25t11.25-4.75h128q6.5 0 11.25 4.75t4.75 11.25v32zM192 336q0 6.5-4.75 11.25t-11.25 4.75h-128q-6.5 0-11.25-4.75t-4.75-11.25v-32q0-6.5 4.75-11.25t11.25-4.75h128q6.5 0 11.25 4.75t4.75 11.25v32zM192 240q0 6.5-4.75 11.25t-11.25 4.75h-128q-6.5 0-11.25-4.75t-4.75-11.25v-32q0-6.5 4.75-11.25t11.25-4.75h128q6.5 0 11.25 4.75t4.75 11.25v32z" />
<glyph unicode="&#xe5fb;" d="M502.64 310.624l-160 160c-7.936 7.936-19.44 11.12-30.336 8.432-5.744-1.408-10.88-4.368-14.944-8.432-3.632-3.632-6.368-8.128-7.936-13.152-7.248-23.504-19.776-43.936-38.32-62.464-24.768-24.752-57.024-43.504-91.152-63.328-36.224-20.992-73.648-42.752-104.32-73.408-26.064-26.096-43.808-55.12-54.208-88.816-3.504-11.376-0.448-23.68 7.936-32.096l160-160c7.936-7.936 19.44-11.12 30.336-8.432 5.744 1.44 10.88 4.368 14.944 8.432 3.632 3.632 6.368 8.128 7.936 13.184 7.264 23.504 19.792 43.936 38.352 62.464 24.752 24.752 56.992 43.472 91.152 63.28 36.192 21.024 73.632 42.784 104.288 73.44 26.064 26.064 43.808 55.12 54.224 88.816 3.488 11.36 0.416 23.712-7.952 32.080zM192 0c-52.992 52.992-107.008 107.024-160 160 45.472 147.216 242.56 140.784 288 288 52.992-52.976 107.024-107.008 160.032-160-45.488-147.184-242.576-140.784-288.032-288zM312.992 241.6c-5.216 4.368-10.464 7.344-15.744 8.816-5.248 1.472-10.496 2.064-15.808 1.68-5.248-0.4-10.624-1.6-16-3.664-5.376-2.096-10.784-4.368-16.224-7.008-8.592 9.872-17.184 19.632-25.776 28.688 3.872 3.504 7.632 5.28 11.248 5.408 3.632 0.16 7.12-0.224 10.432-1.056 3.376-0.848 6.464-1.568 9.312-2.128 2.88-0.56 5.376 0.064 7.568 1.904 2.32 2 3.6 4.592 3.776 7.712 0.16 3.152-1.024 6.224-3.664 9.216-3.376 3.872-7.44 6.224-12.32 7.088-4.816 0.848-9.744 0.784-14.88-0.336-5.056-1.152-9.872-3.056-14.432-5.744s-8.224-5.44-10.944-8.128c-1.040 0.992-2.080 1.968-3.12 2.944-1.152 1.056-2.592 1.632-4.32 1.6-1.744 0-3.184-0.752-4.368-2.128-1.152-1.344-1.68-2.912-1.472-4.56 0.16-1.712 0.848-3.024 2.032-4.032 1.040-0.88 2.080-1.744 3.12-2.656-4.096-4.944-7.472-10.4-10.128-16.16-2.688-5.776-4.288-11.504-4.88-17.056-0.624-5.6-0.032-10.72 1.68-15.472 1.712-4.784 4.88-8.848 9.504-12.688 7.536-6.256 16.4-8.912 26.688-8.32 10.256 0.624 21.312 3.68 33.2 10.064 9.44-10.912 18.912-21.744 28.368-31.808-4-3.376-7.504-5.312-10.592-5.936-3.088-0.656-5.84-0.592-8.336 0.16-2.496 0.784-4.816 1.904-6.944 3.344-2.128 1.472-4.224 2.72-6.32 3.744-2.064 1.024-4.192 1.6-6.368 1.632s-4.496-1.024-7.056-3.216c-2.624-2.288-3.936-4.944-3.936-7.936 0-2.976 1.376-6 4.064-9.056 2.72-3.056 6.256-5.632 10.528-7.664s9.104-3.312 14.416-3.664c5.312-0.368 10.912 0.432 16.816 2.624 5.936 2.16 11.808 6.064 17.6 11.872 2.784-2.72 5.6-5.312 8.4-7.808 1.184-1.024 2.624-1.536 4.368-1.408 1.68 0.064 3.152 0.848 4.32 2.256 1.184 1.44 1.68 3.024 1.504 4.688-0.16 1.68-0.848 2.976-2 3.904-2.816 2.256-5.632 4.624-8.432 7.12 4.784 5.872 8.624 12.064 11.472 18.192 2.848 6.16 4.528 12.096 5.088 17.6 0.56 5.536-0.096 10.528-1.904 15.056-1.792 4.592-4.976 8.528-9.536 12.32zM223.536 230.752c-4.528-0.192-8.48 1.312-11.936 4.656-1.472 1.408-2.496 3.12-3.12 5.152-0.656 2.032-0.88 4.256-0.624 6.688 0.224 2.4 0.944 4.912 2.192 7.44 1.184 2.528 2.944 5.056 5.184 7.504 8.112-8.064 16.208-16.912 24.32-26.064-6.144-3.376-11.488-5.184-16.016-5.376zM299.008 198.72c-1.44-2.656-3.088-5.024-5.024-7.088-8.976 9.056-17.936 19.008-26.88 29.216 2.288 1.024 4.688 2.096 7.28 3.184s5.184 1.808 7.776 2.256c2.656 0.4 5.28 0.288 7.904-0.336 2.592-0.656 5.056-2.064 7.344-4.288 2.256-2.256 3.68-4.592 4.256-7.12 0.624-2.56 0.656-5.152 0.224-7.808-0.464-2.672-1.408-5.328-2.88-8.016zM235.472 125.12c3.152 2.544 7.792 2.416 10.688-0.528 3.136-3.12 3.136-8.224 0-11.344-0.256-0.256-0.528-0.432-0.816-0.656l0.032-0.032c-10.128-7.696-18.448-14.624-27.424-23.6-8.112-8.096-15.44-16.624-21.776-25.28l-10.224-14c-0.32-0.576-0.704-1.104-1.184-1.6-3.136-3.12-8.24-3.12-11.36 0-2.72 2.72-3.056 6.912-1.056 10.032l-0.032 0.032 10.944 14.944c6.832 9.344 14.688 18.496 23.376 27.184 9.040 9.072 18.8 17.168 28.8 24.848h0.032zM294.048 356.56c8.096 8.096 15.408 16.592 21.76 25.296l10.624 14.56c0.384 0.688 0.816 1.376 1.408 1.968 3.152 3.152 8.256 3.152 11.408 0 2.992-3.008 3.12-7.76 0.4-10.944l0.032-0.032-10.944-15.008c-6.848-9.344-14.688-18.464-23.376-27.152-9.040-9.040-18.784-17.168-28.784-24.848l-0.064 0.032c-3.184-2.928-8.128-2.864-11.184 0.224-3.152 3.152-3.152 8.288 0 11.44 0.56 0.592 1.216 1.008 1.872 1.376 9.408 7.184 18.48 14.72 26.848 23.088z" />
<glyph unicode="&#xe600;" d="M352.064 480c-88.368 0-160-71.648-160-160 0-20.56 4.304-40.016 11.408-58.064l-194.384-194.368c-5.616-5.632-9.088-10.976-9.088-19.568v-48c0-17.12 14.864-32 32-32h48c8.576 0 14 3.44 19.616 9.024l22.96 22.976h37.488c17.664 0 32 14.336 32 32v32h32c17.664 0 32 14.336 32 32v37.504l37.904 37.936c18.064-7.12 37.504-11.44 58.096-11.44 88.336 0 160 71.648 160 160s-71.664 160-160 160zM352.064 192c-23.68 0-45.632 6.88-64.656 18.112l-5.504-5.488-48.48-48.496c-6-6-9.376-14.128-9.376-22.624v-37.504h-32c-17.664 0-32-14.32-32-32v-32h-37.472c-8.48 0-16.624-3.376-22.624-9.376l-22.688-22.688-45.216 0.064-0.048 45.6 186.64 186.304c0 0 0-0.016 0.016-0.032l23.504 23.504c-11.232 19.024-18.112 40.96-18.112 64.64 0 70.688 57.328 128 128 128s128-57.312 128-128-57.296-128.016-127.984-128.016zM445.12 348.176c-17.936 24.992-39.776 46.8-64.88 64.864-4.080 2.96-9.36 3.696-14.112 2.032-22.224-7.824-37.44-23.024-45.216-45.248-0.592-1.664-0.88-3.392-0.88-5.104 0-3.184 0.992-6.336 2.912-9.008 18-25.024 39.808-46.848 64.848-64.848 4.096-2.944 9.344-3.696 14.096-2.048 22.256 7.776 37.472 23.008 45.28 45.248 0.592 1.664 0.88 3.392 0.88 5.104-0.016 3.184-1.024 6.336-2.928 9.008zM397.12 303.84c-23.648 17.008-44.24 37.6-61.12 60.688 6.192 17.648 17.776 29.232 34.912 35.536 23.664-17.040 44.224-37.584 61.056-60.976-6.256-17.52-17.808-29.040-34.848-35.248z" />
<glyph unicode="&#xe602;" d="M256 480c-97.216 0-176-78.784-176-176 0-64.496 59.008-132.848 80.496-192.88 32.048-89.52 28.496-143.12 95.504-143.12 68 0 63.44 53.344 95.504 142.752 21.552 60.16 80.496 129.248 80.496 193.248 0 97.216-78.816 176-176 176zM297.472 45.184l-79.328-9.904c-2.832 8.192-5.872 17.776-9.568 30.288-0.048 0.16-0.112 0.336-0.144 0.496l99.008 12.368c-1.408-4.72-2.912-9.68-4.224-14.128-2.096-7.184-3.968-13.424-5.744-19.12zM203.776 81.472c-2.912 9.632-6.192 19.776-9.84 30.528h124.256c-1.968-5.744-3.936-11.504-5.632-16.944l-108.784-13.584zM256 0c-16.208 0-23.664 1.872-31.952 20l67.808 8.496c-9.824-26.464-16.976-28.496-35.856-28.496zM330.752 144h-149.328c-7.968 17.28-17.536 34.56-26.976 51.472-20.88 37.36-42.448 76-42.448 108.528 0 79.408 64.592 144 144 144s144-64.592 144-144c0-32.288-21.6-71.136-42.496-108.72-9.344-16.848-18.848-34.096-26.752-51.28zM256 400c4.4 0 8-3.584 8-8s-3.584-8-8-8c-44.112 0-80-35.888-80-80 0-4.416-3.584-8-8-8s-8 3.584-8 8c0 52.944 43.056 96 96 96z" />
<glyph unicode="&#xe603;" d="M432 480h-352c-35.344 0-64-28.656-64-64v-384c0-35.344 28.656-64 64-64h352c35.344 0 64 28.656 64 64v384c0 35.344-28.656 64-64 64zM464 32c0-17.632-14.368-32-32-32h-352c-17.648 0-32 14.368-32 32v384c0 17.648 14.352 32 32 32h352c17.632 0 32-14.352 32-32v-384zM416 416h-320c-8.848 0-16-7.152-16-16v-288c0-8.848 7.152-16 16-16h320c8.848 0 16 7.152 16 16v288c0 8.848-7.152 16-16 16zM416 400v-221.904l-52 56.48c-3.056 3.456-7.408 5.424-12 5.424s-8.976-1.968-12-5.424l-41.664-47.2-126.336 143.2c-3.040 3.456-7.408 5.424-12 5.424s-8.96-1.968-12-5.424l-52-59.968v129.392h320zM96 246.4l64 73.6 138.336-156.816 44.192-51.184h-246.528v134.4zM363.84 112l-54.848 63.28 43.008 48.72 64-70.064v-41.936h-52.16zM320 272c26.496 0 48 21.488 48 48s-21.504 48-48 48c-26.528 0-48-21.488-48-48s21.472-48 48-48zM320 352c17.632 0 32-14.352 32-32s-14.368-32-32-32c-17.664 0-32 14.352-32 32s14.336 32 32 32z" />
<glyph unicode="&#xe605;" d="M256 480c-107.904 0-224-32.528-224-104v-304c0-71.44 116.096-104 224-104 107.888 0 224 32.56 224 104v304c0 71.472-116.128 104-224 104zM448 72c0-39.744-85.968-72-192-72-106.048 0-192 32.256-192 72v59.776c33.056-34.064 112.8-51.776 192-51.776s158.944 17.712 192 51.776v-59.776zM448 168h-0.064c0-0.16 0.064-0.336 0.064-0.496 0-39.504-85.968-71.504-192-71.504s-192 32-192 71.504c0 0.16 0.064 0.336 0.064 0.496h-0.064v59.776c33.056-34.064 112.8-51.776 192-51.776s158.944 17.712 192 51.776v-59.776zM448 264h-0.064c0-0.16 0.064-0.336 0.064-0.496 0-39.504-85.968-71.504-192-71.504s-192 32-192 71.504c0 0.16 0.064 0.336 0.064 0.496h-0.064v54.976c41.936-31.952 118.8-46.976 192-46.976s150.064 15.024 192 46.976v-54.976zM256 304c-106.048 0-192 32.256-192 72 0 39.776 85.952 72 192 72 106.032 0 192-32.224 192-72 0-39.744-85.968-72-192-72zM384 64c0 8.837 7.163 16 16 16s16-7.163 16-16c0-8.837-7.163-16-16-16s-16 7.163-16 16zM384 160c0 8.837 7.163 16 16 16s16-7.163 16-16c0-8.837-7.163-16-16-16s-16 7.163-16 16zM384 256c0 8.837 7.163 16 16 16s16-7.163 16-16c0-8.837-7.163-16-16-16s-16 7.163-16 16z" />
<glyph unicode="&#xe648;" d="M320 255.968h64v32h-64v-32zM320 191.968h64v32h-64v-32zM320 127.968h64v32h-64v-32zM384 383.968h-256v-32h256v32zM256 287.968h-128v-32h128v32zM32 479.968v-512h32l64 48 63.616-48 64.384 48 64-48 64 48 64-48h32v512h-448zM448-0.032l-64 48-64-48-64 48-64-48-64 48-64-48v448.032h384v-448.032zM256 159.968h-128v-32h128v32zM256 223.968h-128v-32h128v32z" />
<glyph unicode="&#xe649;" d="M384 255.968h-256v-32h256v32zM384 383.968h-256v-32h256v32zM384 191.968h-256v-32h256v32zM32 479.968v-512h32l64 48 63.616-48 64.384 48 64-48 64 48 64-48h32v512h-448zM448-0.032l-64 48-64-48-64 48-64-48-64 48-64-48v448.032h384v-448.032z" />
<glyph unicode="&#xe653;" d="M261.28 240.096v72.384c19.648-2.656 37.92-10.976 51.904-25.568l17.568 20.224c-17.184 16.928-40.384 28.192-69.472 30.56v30.528h-21.408v-30.176c-42.112-3.008-72.64-27.232-72.64-61.408 0-40.832 36.832-52.128 72.64-61.408v-80.672c-27.744 2.976-49.152 16.256-62.464 31.2l-17.536-21.248c17.536-18.912 44.576-32.832 80-34.848v-29.536h21.408v29.536c54.368 3.648 74.72 34.848 74.72 64.704 0 43.52-38.56 56.096-74.72 65.728zM239.872 245.44c-23.872 6.624-42.464 14.592-42.464 32.832 0 19.264 17.536 33.184 42.464 34.848v-67.68zM261.28 134.208v75.712c24.544-6.976 44.544-15.968 44.544-37.504 0-15.936-11.2-34.88-44.544-38.208zM256 479.968c-141.376 0-256-114.592-256-256 0-141.376 114.624-256 256-256s256 114.624 256 256c0 141.408-114.624 256-256 256zM256-0.032c-123.712 0-224 100.32-224 224 0 123.712 100.288 224 224 224 123.68 0 224-100.288 224-224 0-123.68-100.32-224-224-224z" />
<glyph unicode="&#xe661;" d="M183.712 113.408l22.656-22.624 113.28 113.152-22.72 22.592-113.216-113.12zM251.68 271.776l-113.28-113.12 22.656-22.624 113.28 113.12-22.656 22.624zM489.568 457.6l-223.616 22.336-257.216-256.928c-12.352-12.352-12.352-32.384 0-44.672l201.312-201.088c12.352-12.352 32.384-12.352 44.736 0l257.184 256.928-22.4 223.424zM243.584 10.72c-6.176-6.144-16.192-6.144-22.368 0l-178.944 178.752c-6.176 6.176-6.176 16.16 0 22.336l234.848 234.624 190.144-11.2 11.2-189.92-234.88-234.592zM333.056 390.56c-24.736-24.672-24.736-64.672 0-89.376 24.672-24.672 64.736-24.672 89.44 0 24.672 24.672 24.672 64.672 0 89.376s-64.736 24.704-89.44 0zM400.128 323.52c-12.384-12.352-32.384-12.352-44.736 0-12.32 12.352-12.32 32.352 0 44.672 12.384 12.352 32.384 12.352 44.736 0s12.384-32.32 0-44.672z" />
<glyph unicode="&#xe669;" d="M256.032 479.968l-192.032-144v-335.968c0-17.696 15.616-32.032 34.912-32.032h157.12v32.032h-141.984c-9.792 0-17.76 7.168-17.76 15.968v304.032l159.744 128 159.776-128v-128h32.256v143.968l-192.032 144zM351.552 160h-31.328v-64.032h-64.544v-32h64.576v-63.968h31.328v63.968h64.512v32h-64.512v64.032zM319.616 320c0 35.328-28.512 63.968-63.584 63.968-35.136 0-63.584-28.672-63.584-63.968 0-35.36 28.48-64.032 63.584-64.032s63.584 28.64 63.584 64.032zM223.776 320c0 17.664 14.464 32 32.288 32s32.256-14.336 32.256-32c0-17.696-14.464-32-32.256-32-17.856 0-32.288 14.304-32.288 32z" />
<glyph unicode="&#xe670;" d="M188.416 290.048c0 10.528 9.408 17.92 21.408 17.92 17.824 0 31.424-13.056 31.424-13.056l11.232 22.080c0 0-12 13.28-35.232 15.36v19.392h-17.216v-19.776c-22.24-3.776-37.664-20.64-37.664-42.336 0-45.248 67.68-42.72 67.68-67.968 0-12.224-9.824-18.112-20.64-18.112-20.032 0-35.424 15.808-35.424 15.808l-14.016-20.448c0 0 14.208-16.64 40.064-19.776v-19.36h17.216v19.36c24.416 3.328 38.656 21.696 38.656 43.168 0 47.136-67.488 42.688-67.488 67.744zM416 127.968v256c0 17.664-14.304 32-32 32h-352c-17.664 0-32-14.336-32-32v-256c0-17.664 14.336-32 32-32h352c17.696 0 32 14.336 32 32zM368 127.968h-320c-8.832 0-16 7.168-16 16v224c0 8.832 7.168 16 16 16h320c8.8 0 16-7.168 16-16v-224c0-8.832-7.2-16-16-16zM480 319.968l-32-0.032v-31.968h16c8.8 0 16-7.168 16-16v-224c0-8.8-7.2-16-16-16h-320c-8.832 0-16 7.2-16 16v16h-32v-32c0-17.664 14.336-32 32-32h352c17.696 0 32 14.336 32 32v256c0 17.696-14.304 32-32 32z" />
<glyph unicode="&#xe673;" d="M192 128h-128v-32.032h128v32.032zM320 128h-96v-32.032h96v32.032zM448 448h-384c-35.328 0-64-28.672-64-64.032v-319.968c0-35.36 28.672-64.032 64-64.032h384c35.328 0 64 28.672 64 64.032v319.968c0 35.328-28.672 64.032-64 64.032zM480 64c0-17.696-14.304-32.032-32-32.032h-384c-17.664 0-32 14.336-32 32.032v159.968h448v-159.968zM480 256h-448v63.968h448v-63.968zM480 352h-448v31.968c0 17.696 14.336 32.032 32 32.032h384c17.696 0 32-14.336 32-32.032v-31.968z" />
<glyph unicode="&#xe679;" d="M478.112 297.248c2.24 4.672 2.496 10.176-0.448 15.008l-77.568 159.872c-2.88 4.8-7.936 6.816-13.376 7.296-0.896 0.16-1.728 0.544-2.72 0.544h-256c-0.992 0-1.856-0.384-2.784-0.576-5.376-0.448-10.464-2.464-13.376-7.264l-77.536-159.872c-2.912-4.8-2.688-10.304-0.448-15.008-0.896-2.976-1.856-5.984-1.856-9.28v-287.968c0-17.696 14.336-32.032 32-32.032h384c17.696 0 32 14.336 32 32.032v287.968c0 3.296-0.928 6.304-1.888 9.28zM374.048 447.968l62.048-128h-121.408l-21.376 128h80.736zM256 447.968l32-128h-64l32 128zM224 287.968h64v-127.968h-64v127.968zM137.952 447.968h80.704l-21.344-128h-121.44l62.080 128zM448 15.968c0-8.8-7.2-15.968-16-15.968h-352c-8.832 0-16 7.168-16 15.968v256c0 8.832 7.168 16 16 16h112v-160h128v160h112c8.8 0 16-7.168 16-16v-256zM192 31.968h32v32h-32v-32zM96 31.968h64v32h-64v-32z" />
<glyph unicode="&#xe681;" d="M229.216 347.264c-6.464-6.464-6.464-16.928 0-23.392l62.656-62.688c0.192-0.192 0.448-0.096 0.64-0.256 2.912-3.008 6.912-4.96 11.488-4.96 0.064 0 0.064 0.032 0.128 0.032 0.512-0.032 0.928 0.256 1.44 0.288 3.232 0.32 6.112 1.568 8.448 3.488 0.672 0.512 1.632 0.32 2.24 0.928l63.008 63.008c6.496 6.496 6.496 17.024 0 23.52-6.496 6.464-16.992 6.464-23.488 0l-35.776-35.776v152.512c0 8.832-7.2 16-16 16s-16-7.168-16-16v-152.096l-35.392 35.392c-6.464 6.464-16.928 6.464-23.392 0zM288 31.968c0-35.328 28.64-64 64-64s64 28.672 64 64-28.64 64-64 64-64-28.672-64-64zM352 63.968c17.696 0 32-14.304 32-32 0-17.664-14.304-32-32-32s-32 14.336-32 32c0 17.696 14.304 32 32 32zM511.744 401.088c-0.064 0.768-0.256 1.504-0.448 2.272-0.32 1.504-0.736 2.88-1.504 4.192-0.192 0.32-0.384 0.576-0.576 0.832-0.992 1.536-2.112 2.88-3.552 4-0.32 0.224-0.576 0.384-0.864 0.576-1.376 0.928-2.816 1.632-4.384 2.112-0.448 0.128-0.672 0.416-1.12 0.512-0.672 0.192-1.376 0.032-2.048 0.128-0.448 0.032-0.8 0.256-1.248 0.256h-2.88c-0.256 0-0.448 0.032-0.64 0h-140.48v-32h121.632l-38.56-161.152-339.072-30.464v191.616h160v32h-160v32h16c8.832 0 16 7.2 16 16 0 8.832-7.168 16-16 16h-96c-8.832 0-16-7.168-16-16 0-8.8 7.168-16 16-16h48v-336c0-8.832 7.168-16 16-16h400c8.8 0 16 7.168 16 16s-7.2 16-16 16h-384v33.408l347.936 31.328c0.256-0.064 0.448-0.288 0.736-0.352 9.056-2.336 18.432 2.88 20.864 11.68l45.824 191.328c0.256 0.8 0.064 1.632 0.192 2.432 0.128 0.768 0.448 1.44 0.448 2.176 0 0.416-0.192 0.736-0.256 1.12zM96 31.968c0-35.328 28.672-64 64-64s64 28.672 64 64-28.672 64-64 64-64-28.672-64-64zM160 63.968c17.664 0 32-14.304 32-32 0-17.664-14.336-32-32-32s-32 14.336-32 32c0 17.696 14.336 32 32 32z" />
<glyph unicode="&#xe682;" d="M288 31.968c0-35.328 28.64-64 64-64s64 28.672 64 64-28.64 64-64 64-64-28.672-64-64zM352 63.968c17.696 0 32-14.304 32-32 0-17.664-14.304-32-32-32s-32 14.336-32 32c0 17.696 14.304 32 32 32zM96 31.968c0-35.328 28.672-64 64-64s64 28.672 64 64-28.672 64-64 64-64-28.672-64-64zM160 63.968c17.664 0 32-14.304 32-32 0-17.664-14.336-32-32-32s-32 14.336-32 32c0 17.696 14.336 32 32 32zM511.744 401.088c-0.064 0.768-0.256 1.504-0.448 2.272-0.32 1.504-0.736 2.88-1.504 4.192-0.192 0.32-0.384 0.576-0.576 0.832-0.992 1.536-2.112 2.88-3.552 4-0.32 0.224-0.576 0.384-0.864 0.576-1.376 0.928-2.816 1.632-4.384 2.112-0.448 0.128-0.672 0.416-1.12 0.512-0.672 0.192-1.376 0.032-2.048 0.128-0.448 0.032-0.8 0.256-1.248 0.256h-2.88c-0.256 0-0.448 0.032-0.64 0h-91.424l-92.544 54.432c-12.448 12.864-32.608 12.896-45.024 0l-75.232-54.432h-92.256v32h16c8.832 0 16 7.2 16 16 0 8.832-7.168 16-16 16h-96c-8.832 0-16-7.168-16-16 0-8.8 7.168-16 16-16h48v-336c0-8.832 7.168-16 16-16h400c8.8 0 16 7.168 16 16s-7.2 16-16 16h-384v33.408l347.936 31.328c0.256-0.064 0.448-0.288 0.736-0.352 9.056-2.336 18.432 2.88 20.864 11.68l45.824 191.328c0.256 0.8 0.064 1.632 0.192 2.432 0.128 0.768 0.448 1.44 0.448 2.176 0 0.416-0.192 0.736-0.256 1.12zM285.984 447.040l52.832-31.072h-99.104l46.272 31.072zM435.072 222.816l-339.072-30.464v191.616h377.632l-38.56-161.152z" />
<glyph unicode="&#xe683;" d="M288 31.968c0-35.328 28.64-64 64-64s64 28.672 64 64-28.64 64-64 64-64-28.672-64-64zM352 64c17.696 0 32-14.336 32-32.032 0-17.664-14.304-32-32-32s-32 14.336-32 32c0 17.696 14.304 32.032 32 32.032zM511.744 401.088c-0.064 0.768-0.256 1.504-0.448 2.272-0.32 1.504-0.736 2.912-1.504 4.224-0.192 0.288-0.384 0.512-0.576 0.768-0.928 1.568-2.112 2.912-3.616 4.032-0.256 0.224-0.512 0.384-0.736 0.576-1.376 0.928-2.816 1.664-4.448 2.112-0.448 0.128-0.672 0.416-1.12 0.512-0.672 0.192-1.376 0.064-2.048 0.16-0.448 0.032-0.8 0.224-1.248 0.224h-2.88c-0.256 0-0.448 0.032-0.64 0h-396.48v32h16c8.832 0 16 7.2 16 16 0 8.832-7.168 16-16 16h-96c-8.832 0-16-7.168-16-16 0-8.8 7.168-16 16-16h48v-336c0-8.8 7.168-16 16-16h400c8.8 0 16 7.2 16 16 0 8.832-7.2 16-16 16h-384v33.44c0 0 348.384 31.008 348.672 30.944 9.056-2.336 18.432 2.88 20.864 11.68l45.824 191.328c0.256 0.8 0.064 1.632 0.192 2.432 0.128 0.768 0.448 1.44 0.448 2.176 0 0.416-0.192 0.736-0.256 1.12zM435.072 222.848l-339.072-30.496v191.616h377.632l-38.56-161.12zM96 31.968c0-35.328 28.672-64 64-64s64 28.672 64 64-28.672 64-64 64-64-28.672-64-64zM160 64c17.664 0 32-14.336 32-32.032 0-17.664-14.336-32-32-32s-32 14.336-32 32c0 17.696 14.336 32.032 32 32.032z" />
<glyph unicode="&#xe6d2;" d="M432 479.968h-352c-44.192 0-80-35.84-80-80 0-44.192 35.808-80 80-80h80v-112c0-8.832 7.168-16 16-16h80v-32c-17.664 0-32-14.336-32-32v-128c0-17.696 14.336-32 32-32h32c17.696 0 32 14.304 32 32v128c0 17.664-14.304 32-32 32v48c0 8.8-7.168 16-16 16h-80v96h240c44.192 0 80 35.808 80 80 0 44.16-35.808 80-80 80zM272 127.968c8.832 0 16-7.168 16-16v-96c0-8.832-7.168-16-16-16-8.8 0-16 7.168-16 16v96c0 8.832 7.168 16 16 16zM432 351.968h-352c-26.528 0-48 21.472-48 48 0 26.496 21.472 48 48 48h352c26.496 0 48-21.504 48-48 0-26.528-21.504-48-48-48z" />
<glyph unicode="&#xe720;" d="M416 244.736v102.528c0 73.312-64.512 132.736-144 132.736s-144-59.424-144-132.736v-102.528c-20.032-28.576-32-63.2-32-100.736 0-97.184 78.784-176 176-176s176 78.816 176 176c0 37.536-11.936 72.16-32 100.736zM160 347.808c0 55.328 50.144 100.16 112 100.16 61.888 0 112-44.832 112-100.16v-69.12c-30.496 25.408-69.184 41.28-112 41.28-42.784 0-81.472-15.872-112-41.28v69.12zM272-0.032c-79.52 0-144 64.48-144 144s64.48 144 144 144 144-64.48 144-144-64.512-144-144-144zM272 191.968c-8.8 0-16-7.168-16-16v-64c0-8.8 7.168-15.968 16-15.968s16 7.168 16 15.968v64c0 8.832-7.168 16-16 16z" />
<glyph unicode="&#xe721;" d="M264.48 138.336h-11.2c60.544 25.792 98.656 99.904 98.656 169.856 0 86.144-26.176 171.808-144 171.808-117.76 0-143.936-85.664-143.936-171.808 0-70.88 39.104-146.080 101.12-170.88-21.888-5.376-126.496-31.584-140-44.384-23.968-22.72-36-79.52-12.064-113.6 0 0 4.736-11.36 194.912-11.36s195.008 11.36 195.008 11.36c23.744 34.048 11.872 90.88-11.872 113.6-14.432 13.792-126.624 45.408-126.624 45.408zM364.736 0l-151.040 0.48c0 0-162.88-0.48-162.976-0.48-32.896 13.536-16.192 68.672 5.728 80 19.232 9.92 101.632 37.632 125.664 45.632l4.064 20.096v17.44c-55.84 14.496-90.176 83.104-90.176 144.416 0 68.992 18.656 140.512 111.968 140.512s111.936-71.52 111.936-140.512c0-55.136-27.936-115.744-74.144-138.112v-23.744l4.768-23.456c31.456-10.72 97.344-33.504 114.272-42.24 21.824-11.328 28.832-68.352-0.064-80.032zM400 351.968h96c8.8 0 16 7.2 16 16 0 8.832-7.2 16-16 16h-96c-8.8 0-16-7.168-16-16 0-8.8 7.2-16 16-16zM496 191.968h-64c-8.8 0-16-7.168-16-16s7.2-16 16-16h64c8.8 0 16 7.168 16 16s-7.2 16-16 16zM496 96h-32c-8.8 0-16-7.2-16-16.032s7.2-16 16-16h32c8.8 0 16 7.168 16 16s-7.2 16.032-16 16.032zM496 287.968h-96c-8.8 0-16-7.168-16-16s7.2-16 16-16h96c8.8 0 16 7.168 16 16s-7.2 16-16 16z" />
<glyph unicode="&#xe728;" d="M352 131.968c-18.752 5.056-34.688 9.12-41.632 10.848 55.36 30.4 89.696 104.256 89.696 173.824 0 90.208-26.176 163.328-144.096 163.328-117.888 0-144.096-73.12-144.096-163.328 0-69.856 34.592-143.936 90.4-174.080-25.024-6.144-130.4-32.608-144.192-45.6-24.832-23.424-37.344-82.048-12.512-117.216 0 0 14.176-11.744 211.392-11.744 38.304 0 69.408 0.48 95.040 1.184v31.040l-98.176 0.288c0 0-173.76-0.48-173.824-0.48-35.072 13.536-17.28 68.64 6.112 79.968 18.912 9.184 95.584 33.6 127.456 43.584l6.528 32.128v13.44c-47.328 22.784-76.096 87.808-76.096 146.912 0 72.896 18.656 132.032 111.936 132.032 93.312 0 111.936-59.136 111.936-132.032 0-59.104-28.672-124.128-76.064-146.944v-13.44l7.008-34.336c14.368-4.032 33.696-9.472 53.184-15.232v25.856zM469.76 31.968l37.696 37.728c6.016 6.016 6.016 15.712 0 21.728s-15.68 6.016-21.696 0l-37.76-37.728-37.76 37.728c-6.016 6.016-15.68 6.016-21.696 0s-6.016-15.712 0-21.728l37.696-37.728-37.696-37.728c-6.016-6.016-6.016-15.712 0-21.728s15.68-6.016 21.696 0l37.76 37.728 37.76-37.728c6.016-6.016 15.68-6.016 21.696 0s6.016 15.712 0 21.728l-37.696 37.728z" />
<glyph unicode="&#xe741;" d="M96 383.968h192c35.328 0 64-28.64 64-64v-96c0-35.328-28.672-64-64-64h-96v-32h96c53.024 0 96 43.008 96 96v96c0 53.024-43.008 96-96 96h-192c-53.024 0-96-42.976-96-96v-96c0-52.992 42.976-96 96-96v32c-35.328 0-64 28.672-64 64v96c0 35.36 28.672 64 64 64zM416 287.968v-32c35.328 0 64-28.672 64-64v-96c0-35.328-28.672-64-64-64h-192c-35.328 0-64 28.672-64 64v96c0 35.328 28.672 64 64 64h96v32h-96c-53.024 0-96-42.976-96-96v-96c0-53.024 42.976-96 96-96h192c52.992 0 96 42.976 96 96v96c0 53.024-43.008 96-96 96z" />
<glyph unicode="&#xe748;" d="M464 479.968h-416c-26.528 0-48-21.472-48-48v-416c0-26.496 21.472-48 48-48h416c26.496 0 48 21.504 48 48v416c0 26.528-21.504 48-48 48zM480 15.968c0-8.8-7.2-16-16-16h-416c-8.832 0-16 7.2-16 16v416c0 8.832 7.168 16 16 16h416c8.8 0 16-7.168 16-16v-416zM401.44 319.968h-147.040c-7.424 36.544-39.68 64-78.4 64-44.192 0-80-35.808-80-79.968 0 0 0 0 0-0.032 0-44.192 35.84-79.968 80-79.968 38.688 0 70.976 27.456 78.368 63.968h147.072c8.064 0 14.56 7.2 14.56 16 0 8.832-6.496 16-14.56 16zM176 256c-26.528 0-48 21.472-48 48 0 26.496 21.472 48 48 48 26.496 0 48-21.504 48-48 0-26.528-21.504-48-48-48zM336 191.968c-38.688 0-70.976-27.456-78.4-64h-147.040c-8.032 0-14.56-7.168-14.56-16 0-8.8 6.528-16 14.56-16h147.040c7.424-36.512 39.712-63.968 78.4-63.968 44.192 0 79.936 35.776 80 79.936 0 0.032 0 0.032 0 0.032 0 0.032 0 0.032 0 0.032 0 44.16-35.808 79.968-80 79.968zM336 64c-26.496 0-48 21.472-48 48 0 26.496 21.504 48 48 48s48-21.504 48-48c0-26.528-21.504-48-48-48z" />
<glyph unicode="&#xe751;" d="M224 255.968h-32v-64h-64v-32h64v-64h32v64h64v32h-64v64zM480 479.968h-320c-17.664 0-32-14.304-32-32v-32h32v16c0 8.8 7.168 16 16 16h288c8.8 0 16-7.2 16-16v-288c0-8.832-7.2-16-16-16h-16v-32h32c17.696 0 32 14.304 32 32v320c0 17.696-14.304 32-32 32zM384 383.968h-352c-17.664 0-32-14.336-32-32v-352c0-17.696 14.336-32 32-32h352c17.696 0 32 14.304 32 32v352c0 17.664-14.304 32-32 32zM384 15.968c0-8.832-7.2-16-16-16h-320c-8.832 0-16 7.168-16 16v320c0 8.8 7.168 16 16 16h320c8.8 0 16-7.2 16-16v-320z" />
<glyph unicode="&#xe779;" d="M256 479.936c-141.376 0-256-114.624-256-256s114.624-255.968 256-255.968c141.344 0 256 114.592 256 255.968s-114.624 256-256 256zM192 223.936h128c0-35.488-2.432-68.928-6.624-98.752-18.368 1.696-37.472 2.752-57.376 2.752s-39.008-1.056-57.376-2.752c-4.192 29.824-6.624 63.264-6.624 98.752zM192.736 255.936c0.96 23.712 3.040 46.112 5.984 66.816 18.336-1.728 37.408-2.816 57.28-2.816s38.976 1.088 57.312 2.816c2.944-20.704 4.992-43.104 6.016-66.816h-126.592zM437.824 353.632c20.256-28.416 34.24-61.568 39.424-97.696h-126.048c-1.12 24.896-3.808 48.448-7.424 70.592 37.984 5.792 70.272 15.232 94.048 27.104zM480 223.936c0-48.096-15.744-92.192-41.632-128.672-24.128 11.488-56.576 20.64-94.496 26.24 5.184 31.392 8.128 65.92 8.128 102.432h128zM426.496 367.936h-27.68c-16.928-4.704-37.76-8.576-60.928-11.328-7.936 34.784-18.816 64.256-31.872 85.568 48.096-10.976 89.792-37.792 120.48-74.24zM256 447.968c21.44 0 40.352-37.184 52-94.016-16.64-1.184-33.824-2.016-52-2.016-18.144 0-35.36 0.832-52 2.016 11.584 56.832 30.528 94.016 52 94.016zM206.016 442.176c-13.056-21.312-23.936-50.784-31.904-85.568-23.2 2.752-43.968 6.624-60.928 11.328h-27.648c30.688 36.416 72.384 63.232 120.48 74.24zM74.176 353.632c23.744-11.872 56.064-21.312 94.080-27.136-3.648-22.112-6.272-45.664-7.456-70.56h-126.016c5.216 36.128 19.2 69.28 39.392 97.696zM160 223.936c0-36.512 2.976-71.040 8.128-102.4-37.952-5.632-70.4-14.752-94.56-26.24-25.792 36.448-41.568 80.544-41.568 128.64h128zM84.992 79.936h26.080c17.504 4.8 38.944 8.704 62.976 11.488 7.968-34.816 18.88-64.384 31.936-85.696-48.16 11.008-90.176 37.728-120.992 74.208zM256-0.064c-21.504 0-40.48 37.184-52.064 94.048 16.672 1.152 33.92 1.984 52.064 1.984s35.424-0.8 52.032-1.984c-11.584-56.864-30.56-94.048-52.032-94.048zM306.016 5.76c13.056 21.312 24 50.88 31.936 85.696 24.064-2.784 45.44-6.688 62.944-11.488h26.112c-30.816-36.512-72.832-63.232-120.992-74.208z" />
<glyph unicode="&#xe792;" d="M448 479.968h-384c-35.328 0-64-28.672-64-64v-384c0-35.36 28.672-64 64-64h384c35.36 0 64 28.64 64 64v384c0 35.328-28.64 64-64 64zM480 31.968c0-17.696-14.304-32.032-32-32.032h-384c-17.664 0-32 14.336-32 32.032v288h448v-288zM480 351.968h-448v64c0 17.664 14.336 32 32 32h384c17.696 0 32-14.336 32-32v-64z" />
<glyph unicode="&#xe799;" d="M448 479.968h-384c-35.328 0-64-28.672-64-64v-384c0-35.328 28.672-64 64-64h384c35.36 0 64 28.672 64 64v384c0 35.328-28.64 64-64 64zM128-0.032h-64c-17.664 0-32 14.336-32 32v288h96v-320zM480 31.968c0-17.664-14.304-32-32-32h-288v160h320v-128zM480 191.968h-320v128h320v-128zM480 351.968h-448v64c0 17.664 14.336 32 32 32h384c17.696 0 32-14.336 32-32v-64z" />
<glyph unicode="&#xe801;" d="M256 479.968c-141.376 0-256-114.624-256-256s114.624-256 256-256c141.376 0 256 114.624 256 256s-114.624 256-256 256zM320 437.568c71.936-21.568 128.448-77.92 150.048-149.632h-103.552c-11.232 19.136-27.232 35.104-46.496 46.272v103.36zM352 223.968c0-53.024-43.008-96-96-96-53.024 0-96 42.976-96 96s42.976 96 96 96c52.992 0 96-42.976 96-96zM224 444.736c10.528 1.536 21.024 3.232 32 3.232 10.944 0 21.44-1.696 32-3.232v-97.312c-10.304 2.688-20.896 4.544-32 4.544-11.136 0-21.728-1.856-32-4.544v97.312zM192 437.568v-103.328c-19.232-11.2-35.296-27.168-46.528-46.304h-103.552c21.632 71.712 78.144 128.064 150.080 149.632zM32 223.968c0 10.912 1.152 21.536 2.656 32h97.696c-2.688-10.208-4.352-20.864-4.352-32 0-11.104 1.664-21.792 4.352-32h-97.696c-1.504 10.464-2.656 21.088-2.656 32zM192 10.368c-71.936 21.568-128.416 77.92-150.080 149.6h103.552c11.264-19.104 27.296-35.072 46.528-46.24v-103.36zM288 3.2c-10.528-1.536-21.024-3.232-32-3.232s-21.472 1.696-32 3.232v97.312c10.272-2.688 20.864-4.544 32-4.544 11.104 0 21.696 1.856 32 4.544v-97.312zM320 10.368v103.328c19.2 11.2 35.264 27.168 46.496 46.24h103.552c-21.6-71.648-78.112-128-150.048-149.568zM379.616 191.968c2.688 10.208 4.384 20.896 4.384 32 0 11.136-1.696 21.792-4.384 32h97.696c1.568-10.464 2.688-21.088 2.688-32s-1.12-21.536-2.688-32h-97.696z" />
<glyph unicode="&#xe85e;" d="M96 287.968h-32v-32h32v32zM96 95.968h-32v-32h32v32zM96 192h-32v-32.032h32v32.032zM320 383.968h-128v-32h128v32zM320 192h-128v-32.032h128v32.032zM384 383.968v96h-256v-96h-128v-416h512v416h-128zM128-0.032h-96v352h96v-352zM288-0.032h-64v64h64v-64zM352 383.968v-384h-32v96h-128v-96h-32v448h192v-64zM480-0.032h-96v352h96v-352zM448 95.968h-32v-32h32v32zM448 287.968h-32v-32h32v32zM320 287.968h-128v-32h128v32zM448 192h-32v-32.032h32v32.032z" />
<glyph unicode="&#xe85f;" d="M224 415.968h-64v-64h64v64zM128 223.968h-64v-64h64v64zM224 319.968h-64v-64h64v64zM64 63.968h64v64h-64v-64zM160 63.968h64v64h-64v-64zM32 431.968c0 8.832 7.168 16 16 16h192c8.832 0 16-7.168 16-16v-400h32v416c0 17.696-14.304 32-32 32h-224c-17.664 0-32-14.304-32-32v-416h32v400zM224 223.968h-64v-64h64v64zM128 415.968h-64v-64h64v64zM384 127.968h64v64.032h-64v-64.032zM480 447.968h-128c-17.696 0-32-14.304-32-32v-384h32v368c0 8.832 7.2 16 16 16h96c8.8 0 16-7.168 16-16v-368h32v384c0 17.696-14.304 32-32 32zM448 383.968h-64v-64h64v64zM496-0.032h-480c-8.832 0-16-7.168-16-16s7.168-16 16-16h480c8.8 0 16 7.168 16 16s-7.2 16-16 16zM384 223.968h64v64h-64v-64zM128 319.968h-64v-64h64v64z" />
<glyph unicode="&#xe876;" d="M384 383.968v64c0 17.696-14.304 32-32 32h-96c-17.664 0-32-14.304-32-32v-64h-96l-64-112 64-112h96v-160c0-17.696 14.336-32 32-32h96c17.696 0 32 14.304 32 32v160h96v224h-96zM256 431.968c0 8.832 7.168 16 16 16h64c8.8 0 16-7.168 16-16v-48h-96v48zM352 15.968c0-8.8-7.2-16-16-16h-64c-8.8 0-16 7.2-16 16v144h96v-144zM448 191.968h-304l-48 80 48 80.032h304v-160.032z" />
<glyph unicode="&#xe889;" d="M500.64 251.040l-52.992 52.992c35.424 11.36 61.056 44.64 61.056 83.744 0 48.544-39.424 88-87.872 88-39.136 0-72.32-25.696-83.68-61.088l-54.528 54.624c-14.368 14.272-39.328 14.304-53.76-0.064l-74.464-74.56c-4.928-4.928-6.080-12.512-2.88-18.72 3.232-6.176 10.048-9.632 16.96-8.352 4.576 0.8 8.224 1.184 11.52 1.184 35.008 0 60.576-28.512 60.576-63.52s-25.568-64.096-60.576-64.096c-34.976 0-63.456 29.088-63.456 64.096 0 3.328 0.384 6.976 1.184 11.552 1.216 6.88-2.144 13.76-8.32 16.96-6.208 3.264-13.76 2.048-18.688-2.88l-79.904-79.904c-14.72-14.816-14.72-38.944 0.032-53.792l218.048-218.208c7.168-7.2 16.704-11.136 26.848-11.136s19.68 3.936 26.88 11.136l217.984 218.24c14.752 14.816 14.752 38.944 0.032 53.792zM478.016 219.84l-217.952-218.176c-3.136-3.104-5.504-3.072-8.576-0.032l-217.984 218.176c-2.368 2.368-2.368 6.24-0.032 8.608l53.888 53.92c10.304-41.6 47.904-73.12 92.64-73.12 52.64 0 92.544 43.392 92.544 96.064 0 44.768-28 82.432-69.632 92.736l48.512 48.576c3.136 3.136 5.536 3.072 8.576 0.032l78.432-78.496c4.736-4.768 12.064-6.016 18.176-3.136s9.696 9.376 8.992 16.128l-0.384 2.88c-0.096 1.248-0.352 2.496-0.352 3.776 0 30.912 25.12 56 55.936 56s55.936-25.088 55.936-56c0-30.848-25.12-55.936-55.936-55.936-1.44 0-2.752 0.224-4.128 0.384l-2.432 0.32c-6.816 0.832-13.248-2.784-16.256-8.896-2.944-6.112-1.696-13.472 3.136-18.304l76.864-76.864c2.4-2.432 2.4-6.272 0.032-8.64z" />
<glyph unicode="&#xe8ae;" d="M448 415.968l-64-0.032v-32h41.12l54.88-191.936h-207.936c2.848 0 5.408 0.896 7.744 2.144 2.528 0.928 4.928 2.208 6.912 4.224l90.88 91.008c7.136 7.2 7.136 18.848 0 26.016-7.2 7.2-18.816 7.2-26.016 0l-63.136-63.328v211.904c0 8.832-7.36 16-16.416 16-9.088 0-16.448-7.168-16.448-16v-213.024l-64.352 64.416c-7.168 7.2-18.784 7.2-25.952 0-7.168-7.168-7.168-18.816 0-26.016l90.848-91.008c2.432-2.4 5.408-3.712 8.544-4.48 2.208-1.12 4.608-1.856 7.264-1.856h-239.936l54.848 191.936 41.152 0.032v32h-64l-64-224v-192c0-17.664 14.336-32 32-32h448c17.696 0 32 14.336 32 32v192l-64 224zM160 191.968h111.968c0.032 0 0.032 0 0.064 0 0 0 0 0 0.032 0h79.936v-64h-192v64zM480 16c0-8.864-7.2-16.032-16-16.032h-416c-8.832 0-16 7.168-16 16.032v128c0 8.8 7.168 15.968 16 15.968h80v-64h256v64h80c8.8 0 16-7.168 16-15.968v-128z" />
<glyph unicode="&#xe8af;" d="M128 383.968v32h-32v-32h32zM448 415.968h-32l64-223.968h-207.936c8.832 0.032 15.936 7.168 15.936 15.968v214.112l6.144-6.112 57.6-57.632c7.136-7.168 18.752-7.168 25.888 0s7.136 18.72 0 25.888l-90.528 90.496c-3.936 3.936-9.184 5.504-14.336 5.088-0.288 0-0.512 0.16-0.768 0.16-0.48 0-0.832-0.256-1.312-0.288-5.344 0.608-10.848-0.864-14.944-4.96l-90.496-90.496c-7.168-7.168-7.168-18.72 0-25.888s18.72-7.168 25.888 0l64.864 64.928v-215.296c0-8.8 7.104-15.936 15.936-15.968h-239.936l64 223.968h-32l-64-224v-192c0-17.664 14.336-32 32-32h448c17.696 0 32 14.336 32 32v192l-64 224zM160 191.968h111.968c0.032 0 0.032 0 0.032 0 0.032 0 0.032 0 0.064 0h79.936v-64h-192v64zM480 16c0-8.864-7.2-16.032-16-16.032h-416c-8.832 0-16 7.168-16 16.032v128c0 8.8 7.168 15.968 16 15.968h80v-64h256v64h80c8.8 0 16-7.168 16-15.968v-128zM384 383.968h32v32h-32v-32zM64 415.936h64v-32h-64v32zM384 415.936h64v-32h-64v32z" />
<glyph unicode="&#xe8d4;" d="M176 319.968h128c8.8 0 16 7.168 16 16s-7.2 16-16 16h-128c-8.832 0-16-7.168-16-16s7.168-16 16-16zM64 383.968c-17.664 0-32-14.304-32-32v-351.968c0-17.696 14.336-32.032 32-32.032h352c17.696 0 32 14.336 32 32.032h-384v383.968zM400 255.968h-224c-8.832 0-16-7.168-16-16 0-8.8 7.168-16 16-16h224c8.8 0 16 7.2 16 16 0 8.832-7.2 16-16 16zM400 159.968h-224c-8.832 0-16-7.168-16-16 0-8.8 7.168-16 16-16h224c8.8 0 16 7.2 16 16 0 8.832-7.2 16-16 16zM448 447.968h-320c-17.664 0-32-14.304-32-32v-352c0-17.664 14.336-32 32-32h320c17.696 0 32 14.336 32 32v352c0 17.696-14.304 32-32 32zM448 79.968c0-8.8-7.2-16-16-16h-288c-8.832 0-16 7.2-16 16v320c0 8.832 7.168 16 16 16h288c8.8 0 16-7.168 16-16v-320z" />
<glyph unicode="&#xe909;" d="M64 175.936h224v32.032h-224v-32.032zM64 111.936h224v32h-224v-32zM480 431.936h-448c-17.696 0-32-14.304-32-32v-352c0-17.664 14.304-32 32-32h448c17.696 0 32 14.336 32 32v352c0 17.696-14.304 32-32 32zM480 63.936c0-8.832-7.2-16-16-16h-416c-8.832 0-16 7.168-16 16v320c0 8.832 7.168 16 16 16h416c8.8 0 16-7.168 16-16v-320zM320 239.936h128v128h-128v-128zM352 335.936h64v-64h-64v64z" />
<glyph unicode="&#xe91a;" d="M512 64.032v272.032h-128v127.968h-384v-304h-0.224l0.224-0.192v-15.808h15.776l64.224-64.192 64.192 64.192h47.808v-95.968h175.808l64.192-64.224 64.192 64.224h15.808v15.776l0.192 0.192h-0.192zM192 176.032h-63.808l-48.192-48.192-48 48v256.192h320v-95.968h-160v-160.032zM352 304.032v-128h-128v128h128zM480 144.032v-64.192l-48-48-48.192 48.192h-159.808v64h160v160h96v-160z" />
<glyph unicode="&#xe94a;" d="M464 352.128l32 63.84-48-31.936-9.376-4.672c-19.072 22.208-47.008 36.608-78.624 36.608-57.44 0-104-38.464-104-95.776 0-7.776 1.024-23.296 2.656-30.592l-2.656-1.312c0 0-208 31.904-224 111.712 0 0-48-79.808 32-143.648 0 0-32-15.968-48 0 0 0 0-47.872 80-95.776 0 0-32-15.936-48 0 0 0 64-63.808 96-63.808 0 0 0-47.904-144-47.904 0 0 182.048-119.648 352 15.968 86.368 68.928 107.424 156.32 108.576 222.176 1.984 8.096 3.424 16.448 3.424 25.216 0 5.248 0 7.168 0 7.968l48 47.904-48-15.968z" />
</font>
</defs>
</svg>
